<?xml version="1.0" encoding="UTF-8" standalone="no"?>
<!DOCTYPE svg PUBLIC "-//W3C//DTD SVG 1.1//EN"
 "http://www.w3.org/Graphics/SVG/1.1/DTD/svg11.dtd">
<!-- Generated by graphviz version 2.43.0 (0)
 -->
<!-- Title: subclass_vocab_graph Pages: 1 -->
<svg width="1036pt" height="389pt"
 viewBox="0.00 0.00 1036.00 389.00" xmlns="http://www.w3.org/2000/svg" xmlns:xlink="http://www.w3.org/1999/xlink">
<g id="graph0" class="graph" transform="scale(1 1) rotate(0) translate(4 385)">
<title>subclass_vocab_graph</title>
<polygon fill="white" stroke="transparent" points="-4,4 -4,-385 1032,-385 1032,4 -4,4"/>
<text text-anchor="middle" x="514" y="-367.4" font-family="Courier,monospace" font-size="12.00">Subclass Vocab Graph</text>
<!-- ArtifactComposition -->
<g id="node1" class="node">
<title>ArtifactComposition</title>
<path fill="#b3e2cd" stroke="black" d="M190,-90C190,-90 41,-90 41,-90 35,-90 29,-84 29,-78 29,-78 29,-66 29,-66 29,-60 35,-54 41,-54 41,-54 190,-54 190,-54 196,-54 202,-60 202,-66 202,-66 202,-78 202,-78 202,-84 196,-90 190,-90"/>
<text text-anchor="middle" x="115.5" y="-68.3" font-family="Courier,monospace" font-size="14.00">ArtifactComposition</text>
</g>
<!-- ArtifactCollection -->
<g id="node2" class="node">
<title>ArtifactCollection</title>
<path fill="#b3e2cd" stroke="black" d="M457,-63C457,-63 316,-63 316,-63 310,-63 304,-57 304,-51 304,-51 304,-39 304,-39 304,-33 310,-27 316,-27 316,-27 457,-27 457,-27 463,-27 469,-33 469,-39 469,-39 469,-51 469,-51 469,-57 463,-63 457,-63"/>
<text text-anchor="middle" x="386.5" y="-41.3" font-family="Courier,monospace" font-size="14.00">ArtifactCollection</text>
</g>
<!-- ArtifactComposition&#45;&gt;ArtifactCollection -->
<g id="edge1" class="edge">
<title>ArtifactComposition&#45;&gt;ArtifactCollection</title>
<path fill="none" stroke="black" d="M202.35,-63.38C231.37,-60.47 263.89,-57.21 293.38,-54.25"/>
<polygon fill="black" stroke="black" points="294.07,-57.69 303.67,-53.21 293.37,-50.73 294.07,-57.69"/>
</g>
<!-- ArtifactLocus -->
<g id="node3" class="node">
<title>ArtifactLocus</title>
<path fill="#b3e2cd" stroke="black" d="M165.5,-36C165.5,-36 65.5,-36 65.5,-36 59.5,-36 53.5,-30 53.5,-24 53.5,-24 53.5,-12 53.5,-12 53.5,-6 59.5,0 65.5,0 65.5,0 165.5,0 165.5,0 171.5,0 177.5,-6 177.5,-12 177.5,-12 177.5,-24 177.5,-24 177.5,-30 171.5,-36 165.5,-36"/>
<text text-anchor="middle" x="115.5" y="-14.3" font-family="Courier,monospace" font-size="14.00">ArtifactLocus</text>
</g>
<!-- ArtifactLocus&#45;&gt;ArtifactCollection -->
<g id="edge2" class="edge">
<title>ArtifactLocus&#45;&gt;ArtifactCollection</title>
<path fill="none" stroke="black" d="M177.54,-24.13C211.83,-27.57 255.32,-31.93 293.65,-35.78"/>
<polygon fill="black" stroke="black" points="293.49,-39.28 303.79,-36.8 294.19,-32.32 293.49,-39.28"/>
</g>
<!-- TROAttribute -->
<g id="node4" class="node">
<title>TROAttribute</title>
<path fill="#b3e2cd" stroke="black" d="M864,-117C864,-117 772,-117 772,-117 766,-117 760,-111 760,-105 760,-105 760,-93 760,-93 760,-87 766,-81 772,-81 772,-81 864,-81 864,-81 870,-81 876,-87 876,-93 876,-93 876,-105 876,-105 876,-111 870,-117 864,-117"/>
<text text-anchor="middle" x="818" y="-95.3" font-family="Courier,monospace" font-size="14.00">TROAttribute</text>
</g>
<!-- TREAttribute -->
<g id="node5" class="node">
<title>TREAttribute</title>
<path fill="#b3e2cd" stroke="black" d="M1016,-144C1016,-144 924,-144 924,-144 918,-144 912,-138 912,-132 912,-132 912,-120 912,-120 912,-114 918,-108 924,-108 924,-108 1016,-108 1016,-108 1022,-108 1028,-114 1028,-120 1028,-120 1028,-132 1028,-132 1028,-138 1022,-144 1016,-144"/>
<text text-anchor="middle" x="970" y="-122.3" font-family="Courier,monospace" font-size="14.00">TREAttribute</text>
</g>
<!-- TROAttribute&#45;&gt;TREAttribute -->
<g id="edge3" class="edge">
<title>TROAttribute&#45;&gt;TREAttribute</title>
<path fill="none" stroke="black" d="M876.14,-109.28C884.47,-110.78 893.11,-112.34 901.62,-113.87"/>
<polygon fill="black" stroke="black" points="901.06,-117.33 911.53,-115.65 902.3,-110.44 901.06,-117.33"/>
</g>
<!-- TRSAttribute -->
<g id="node6" class="node">
<title>TRSAttribute</title>
<path fill="#b3e2cd" stroke="black" d="M864,-171C864,-171 772,-171 772,-171 766,-171 760,-165 760,-159 760,-159 760,-147 760,-147 760,-141 766,-135 772,-135 772,-135 864,-135 864,-135 870,-135 876,-141 876,-147 876,-147 876,-159 876,-159 876,-165 870,-171 864,-171"/>
<text text-anchor="middle" x="818" y="-149.3" font-family="Courier,monospace" font-size="14.00">TRSAttribute</text>
</g>
<!-- TRSAttribute&#45;&gt;TREAttribute -->
<g id="edge4" class="edge">
<title>TRSAttribute&#45;&gt;TREAttribute</title>
<path fill="none" stroke="black" d="M876.14,-142.72C884.47,-141.22 893.11,-139.66 901.62,-138.13"/>
<polygon fill="black" stroke="black" points="902.3,-141.56 911.53,-136.35 901.06,-134.67 902.3,-141.56"/>
</g>
<!-- IncludesAllInputData -->
<g id="node7" class="node">
<title>IncludesAllInputData</title>
<path fill="#b3e2cd" stroke="black" d="M712,-117C712,-117 554,-117 554,-117 548,-117 542,-111 542,-105 542,-105 542,-93 542,-93 542,-87 548,-81 554,-81 554,-81 712,-81 712,-81 718,-81 724,-87 724,-93 724,-93 724,-105 724,-105 724,-111 718,-117 712,-117"/>
<text text-anchor="middle" x="633" y="-95.3" font-family="Courier,monospace" font-size="14.00">IncludesAllInputData</text>
</g>
<!-- IncludesAllInputData&#45;&gt;TROAttribute -->
<g id="edge5" class="edge">
<title>IncludesAllInputData&#45;&gt;TROAttribute</title>
<path fill="none" stroke="black" d="M724.16,-99C732.82,-99 741.49,-99 749.87,-99"/>
<polygon fill="black" stroke="black" points="749.93,-102.5 759.93,-99 749.93,-95.5 749.93,-102.5"/>
</g>
<!-- TRSCapability -->
<g id="node8" class="node">
<title>TRSCapability</title>
<path fill="#b3e2cd" stroke="black" d="M683,-171C683,-171 583,-171 583,-171 577,-171 571,-165 571,-159 571,-159 571,-147 571,-147 571,-141 577,-135 583,-135 583,-135 683,-135 683,-135 689,-135 695,-141 695,-147 695,-147 695,-159 695,-159 695,-165 689,-171 683,-171"/>
<text text-anchor="middle" x="633" y="-149.3" font-family="Courier,monospace" font-size="14.00">TRSCapability</text>
</g>
<!-- TRSCapability&#45;&gt;TRSAttribute -->
<g id="edge6" class="edge">
<title>TRSCapability&#45;&gt;TRSAttribute</title>
<path fill="none" stroke="black" d="M695.19,-153C712.65,-153 731.77,-153 749.58,-153"/>
<polygon fill="black" stroke="black" points="749.89,-156.5 759.89,-153 749.89,-149.5 749.89,-156.5"/>
</g>
<!-- CanProvideInternetIsolation -->
<g id="node9" class="node">
<title>CanProvideInternetIsolation</title>
<path fill="#b3e2cd" stroke="black" d="M494,-198C494,-198 279,-198 279,-198 273,-198 267,-192 267,-186 267,-186 267,-174 267,-174 267,-168 273,-162 279,-162 279,-162 494,-162 494,-162 500,-162 506,-168 506,-174 506,-174 506,-186 506,-186 506,-192 500,-198 494,-198"/>
<text text-anchor="middle" x="386.5" y="-176.3" font-family="Courier,monospace" font-size="14.00">CanProvideInternetIsolation</text>
</g>
<!-- CanProvideInternetIsolation&#45;&gt;TRSCapability -->
<g id="edge7" class="edge">
<title>CanProvideInternetIsolation&#45;&gt;TRSCapability</title>
<path fill="none" stroke="black" d="M506.17,-166.9C524.71,-164.85 543.36,-162.79 560.41,-160.91"/>
<polygon fill="black" stroke="black" points="561.25,-164.33 570.81,-159.76 560.48,-157.38 561.25,-164.33"/>
</g>
<!-- TRSPolicy -->
<g id="node10" class="node">
<title>TRSPolicy</title>
<path fill="#b3e2cd" stroke="black" d="M420,-144C420,-144 353,-144 353,-144 347,-144 341,-138 341,-132 341,-132 341,-120 341,-120 341,-114 347,-108 353,-108 353,-108 420,-108 420,-108 426,-108 432,-114 432,-120 432,-120 432,-132 432,-132 432,-138 426,-144 420,-144"/>
<text text-anchor="middle" x="386.5" y="-122.3" font-family="Courier,monospace" font-size="14.00">TRSPolicy</text>
</g>
<!-- TRSPolicy&#45;&gt;TRSCapability -->
<g id="edge8" class="edge">
<title>TRSPolicy&#45;&gt;TRSCapability</title>
<path fill="none" stroke="black" d="M432.06,-130.92C467.94,-134.88 519.08,-140.53 560.65,-145.12"/>
<polygon fill="black" stroke="black" points="560.4,-148.61 570.72,-146.23 561.17,-141.66 560.4,-148.61"/>
</g>
<!-- EnforcesInternetIsolation -->
<g id="node11" class="node">
<title>EnforcesInternetIsolation</title>
<path fill="#b3e2cd" stroke="black" d="M215,-144C215,-144 16,-144 16,-144 10,-144 4,-138 4,-132 4,-132 4,-120 4,-120 4,-114 10,-108 16,-108 16,-108 215,-108 215,-108 221,-108 227,-114 227,-120 227,-120 227,-132 227,-132 227,-138 221,-144 215,-144"/>
<text text-anchor="middle" x="115.5" y="-122.3" font-family="Courier,monospace" font-size="14.00">EnforcesInternetIsolation</text>
</g>
<!-- EnforcesInternetIsolation&#45;&gt;TRSPolicy -->
<g id="edge9" class="edge">
<title>EnforcesInternetIsolation&#45;&gt;TRSPolicy</title>
<path fill="none" stroke="black" d="M227.08,-126C262.72,-126 300.69,-126 330.51,-126"/>
<polygon fill="black" stroke="black" points="330.71,-129.5 340.71,-126 330.71,-122.5 330.71,-129.5"/>
</g>
<!-- TimeStampingAuthority -->
<g id="node12" class="node">
<title>TimeStampingAuthority</title>
<path fill="#b3e2cd" stroke="black" d="M198.5,-360C198.5,-360 32.5,-360 32.5,-360 26.5,-360 20.5,-354 20.5,-348 20.5,-348 20.5,-336 20.5,-336 20.5,-330 26.5,-324 32.5,-324 32.5,-324 198.5,-324 198.5,-324 204.5,-324 210.5,-330 210.5,-336 210.5,-336 210.5,-348 210.5,-348 210.5,-354 204.5,-360 198.5,-360"/>
<text text-anchor="middle" x="115.5" y="-338.3" font-family="Courier,monospace" font-size="14.00">TimeStampingAuthority</text>
</g>
<!-- TrustedResearchElement -->
<g id="node13" class="node">
<title>TrustedResearchElement</title>
<path fill="#b3e2cd" stroke="black" d="M473.5,-252C473.5,-252 299.5,-252 299.5,-252 293.5,-252 287.5,-246 287.5,-240 287.5,-240 287.5,-228 287.5,-228 287.5,-222 293.5,-216 299.5,-216 299.5,-216 473.5,-216 473.5,-216 479.5,-216 485.5,-222 485.5,-228 485.5,-228 485.5,-240 485.5,-240 485.5,-246 479.5,-252 473.5,-252"/>
<text text-anchor="middle" x="386.5" y="-230.3" font-family="Courier,monospace" font-size="14.00">TrustedResearchElement</text>
</g>
<!-- TimeStampingAuthority&#45;&gt;TrustedResearchElement -->
<g id="edge10" class="edge">
<title>TimeStampingAuthority&#45;&gt;TrustedResearchElement</title>
<path fill="none" stroke="black" d="M203.47,-323.93C212.86,-321.26 222.2,-318.29 231,-315 272.58,-299.48 317.18,-275.19 347.72,-257.25"/>
<polygon fill="black" stroke="black" points="349.52,-260.25 356.33,-252.14 345.95,-254.23 349.52,-260.25"/>
</g>
<!-- TransparentResearchObject -->
<g id="node14" class="node">
<title>TransparentResearchObject</title>
<path fill="#b3e2cd" stroke="black" d="M215,-306C215,-306 16,-306 16,-306 10,-306 4,-300 4,-294 4,-294 4,-282 4,-282 4,-276 10,-270 16,-270 16,-270 215,-270 215,-270 221,-270 227,-276 227,-282 227,-282 227,-294 227,-294 227,-300 221,-306 215,-306"/>
<text text-anchor="middle" x="115.5" y="-284.3" font-family="Courier,monospace" font-size="14.00">TransparentResearchObject</text>
</g>
<!-- TransparentResearchObject&#45;&gt;TrustedResearchElement -->
<g id="edge11" class="edge">
<title>TransparentResearchObject&#45;&gt;TrustedResearchElement</title>
<path fill="none" stroke="black" d="M206.45,-269.94C231.91,-264.83 259.77,-259.24 285.77,-254.02"/>
<polygon fill="black" stroke="black" points="286.52,-257.44 295.64,-252.04 285.14,-250.58 286.52,-257.44"/>
</g>
<!-- TrustedResearchPerformance -->
<g id="node15" class="node">
<title>TrustedResearchPerformance</title>
<path fill="#b3e2cd" stroke="black" d="M219,-252C219,-252 12,-252 12,-252 6,-252 0,-246 0,-240 0,-240 0,-228 0,-228 0,-222 6,-216 12,-216 12,-216 219,-216 219,-216 225,-216 231,-222 231,-228 231,-228 231,-240 231,-240 231,-246 225,-252 219,-252"/>
<text text-anchor="middle" x="115.5" y="-230.3" font-family="Courier,monospace" font-size="14.00">TrustedResearchPerformance</text>
</g>
<!-- TrustedResearchPerformance&#45;&gt;TrustedResearchElement -->
<g id="edge12" class="edge">
<title>TrustedResearchPerformance&#45;&gt;TrustedResearchElement</title>
<path fill="none" stroke="black" d="M231.36,-234C246.44,-234 261.86,-234 276.84,-234"/>
<polygon fill="black" stroke="black" points="277.13,-237.5 287.13,-234 277.13,-230.5 277.13,-237.5"/>
</g>
<!-- TrustedResearchSystem -->
<g id="node16" class="node">
<title>TrustedResearchSystem</title>
<path fill="#b3e2cd" stroke="black" d="M198.5,-198C198.5,-198 32.5,-198 32.5,-198 26.5,-198 20.5,-192 20.5,-186 20.5,-186 20.5,-174 20.5,-174 20.5,-168 26.5,-162 32.5,-162 32.5,-162 198.5,-162 198.5,-162 204.5,-162 210.5,-168 210.5,-174 210.5,-174 210.5,-186 210.5,-186 210.5,-192 204.5,-198 198.5,-198"/>
<text text-anchor="middle" x="115.5" y="-176.3" font-family="Courier,monospace" font-size="14.00">TrustedResearchSystem</text>
</g>
<!-- TrustedResearchSystem&#45;&gt;TrustedResearchElement -->
<g id="edge13" class="edge">
<title>TrustedResearchSystem&#45;&gt;TrustedResearchElement</title>
<path fill="none" stroke="black" d="M206.45,-198.06C231.91,-203.17 259.77,-208.76 285.77,-213.98"/>
<polygon fill="black" stroke="black" points="285.14,-217.42 295.64,-215.96 286.52,-210.56 285.14,-217.42"/>
</g>
</g>
</svg>
