<?xml version="1.0" encoding="UTF-8" standalone="no"?>
<!DOCTYPE svg PUBLIC "-//W3C//DTD SVG 1.1//EN"
 "http://www.w3.org/Graphics/SVG/1.1/DTD/svg11.dtd">
<!-- Generated by graphviz version 2.43.0 (0)
 -->
<!-- Title: subclass_vocab_graph Pages: 1 -->
<svg width="1225pt" height="443pt"
 viewBox="0.00 0.00 1225.00 443.00" xmlns="http://www.w3.org/2000/svg" xmlns:xlink="http://www.w3.org/1999/xlink">
<g id="graph0" class="graph" transform="scale(1 1) rotate(0) translate(4 439)">
<title>subclass_vocab_graph</title>
<polygon fill="white" stroke="transparent" points="-4,4 -4,-439 1221,-439 1221,4 -4,4"/>
<text text-anchor="middle" x="608.5" y="-421.4" font-family="Courier,monospace" font-size="12.00">Subclass Vocab Graph</text>
<!-- ArtifactCollection -->
<g id="node1" class="node">
<title>ArtifactCollection</title>
<path fill="#b3e2cd" stroke="black" d="M169.5,-63C169.5,-63 28.5,-63 28.5,-63 22.5,-63 16.5,-57 16.5,-51 16.5,-51 16.5,-39 16.5,-39 16.5,-33 22.5,-27 28.5,-27 28.5,-27 169.5,-27 169.5,-27 175.5,-27 181.5,-33 181.5,-39 181.5,-39 181.5,-51 181.5,-51 181.5,-57 175.5,-63 169.5,-63"/>
<text text-anchor="middle" x="99" y="-41.3" font-family="Courier,monospace" font-size="14.00">ArtifactCollection</text>
</g>
<!-- ArtifactComposition -->
<g id="node2" class="node">
<title>ArtifactComposition</title>
<path fill="#b3e2cd" stroke="black" d="M424,-90C424,-90 275,-90 275,-90 269,-90 263,-84 263,-78 263,-78 263,-66 263,-66 263,-60 269,-54 275,-54 275,-54 424,-54 424,-54 430,-54 436,-60 436,-66 436,-66 436,-78 436,-78 436,-84 430,-90 424,-90"/>
<text text-anchor="middle" x="349.5" y="-68.3" font-family="Courier,monospace" font-size="14.00">ArtifactComposition</text>
</g>
<!-- ArtifactCollection&#45;&gt;ArtifactComposition -->
<g id="edge1" class="edge">
<title>ArtifactCollection&#45;&gt;ArtifactComposition</title>
<path fill="none" stroke="black" d="M181.71,-53.88C204.49,-56.35 229.43,-59.06 252.93,-61.62"/>
<polygon fill="black" stroke="black" points="252.58,-65.1 262.9,-62.7 253.34,-58.14 252.58,-65.1"/>
</g>
<!-- ArtifactLocus -->
<g id="node3" class="node">
<title>ArtifactLocus</title>
<path fill="#b3e2cd" stroke="black" d="M399.5,-36C399.5,-36 299.5,-36 299.5,-36 293.5,-36 287.5,-30 287.5,-24 287.5,-24 287.5,-12 287.5,-12 287.5,-6 293.5,0 299.5,0 299.5,0 399.5,0 399.5,0 405.5,0 411.5,-6 411.5,-12 411.5,-12 411.5,-24 411.5,-24 411.5,-30 405.5,-36 399.5,-36"/>
<text text-anchor="middle" x="349.5" y="-14.3" font-family="Courier,monospace" font-size="14.00">ArtifactLocus</text>
</g>
<!-- ArtifactCollection&#45;&gt;ArtifactLocus -->
<g id="edge2" class="edge">
<title>ArtifactCollection&#45;&gt;ArtifactLocus</title>
<path fill="none" stroke="black" d="M181.71,-36.12C212.46,-32.78 247.16,-29.01 276.92,-25.78"/>
<polygon fill="black" stroke="black" points="277.66,-29.22 287.23,-24.66 276.91,-22.26 277.66,-29.22"/>
</g>
<!-- TREAttribute -->
<g id="node4" class="node">
<title>TREAttribute</title>
<path fill="#b3e2cd" stroke="black" d="M145,-171C145,-171 53,-171 53,-171 47,-171 41,-165 41,-159 41,-159 41,-147 41,-147 41,-141 47,-135 53,-135 53,-135 145,-135 145,-135 151,-135 157,-141 157,-147 157,-147 157,-159 157,-159 157,-165 151,-171 145,-171"/>
<text text-anchor="middle" x="99" y="-149.3" font-family="Courier,monospace" font-size="14.00">TREAttribute</text>
</g>
<!-- TROAttribute -->
<g id="node5" class="node">
<title>TROAttribute</title>
<path fill="#b3e2cd" stroke="black" d="M395.5,-198C395.5,-198 303.5,-198 303.5,-198 297.5,-198 291.5,-192 291.5,-186 291.5,-186 291.5,-174 291.5,-174 291.5,-168 297.5,-162 303.5,-162 303.5,-162 395.5,-162 395.5,-162 401.5,-162 407.5,-168 407.5,-174 407.5,-174 407.5,-186 407.5,-186 407.5,-192 401.5,-198 395.5,-198"/>
<text text-anchor="middle" x="349.5" y="-176.3" font-family="Courier,monospace" font-size="14.00">TROAttribute</text>
</g>
<!-- TREAttribute&#45;&gt;TROAttribute -->
<g id="edge3" class="edge">
<title>TREAttribute&#45;&gt;TROAttribute</title>
<path fill="none" stroke="black" d="M157.01,-159.19C193.97,-163.21 242.3,-168.46 281.15,-172.68"/>
<polygon fill="black" stroke="black" points="281.01,-176.19 291.32,-173.79 281.76,-169.23 281.01,-176.19"/>
</g>
<!-- TRSAttribute -->
<g id="node6" class="node">
<title>TRSAttribute</title>
<path fill="#b3e2cd" stroke="black" d="M395.5,-144C395.5,-144 303.5,-144 303.5,-144 297.5,-144 291.5,-138 291.5,-132 291.5,-132 291.5,-120 291.5,-120 291.5,-114 297.5,-108 303.5,-108 303.5,-108 395.5,-108 395.5,-108 401.5,-108 407.5,-114 407.5,-120 407.5,-120 407.5,-132 407.5,-132 407.5,-138 401.5,-144 395.5,-144"/>
<text text-anchor="middle" x="349.5" y="-122.3" font-family="Courier,monospace" font-size="14.00">TRSAttribute</text>
</g>
<!-- TREAttribute&#45;&gt;TRSAttribute -->
<g id="edge4" class="edge">
<title>TREAttribute&#45;&gt;TRSAttribute</title>
<path fill="none" stroke="black" d="M157.01,-146.81C193.97,-142.79 242.3,-137.54 281.15,-133.32"/>
<polygon fill="black" stroke="black" points="281.76,-136.77 291.32,-132.21 281.01,-129.81 281.76,-136.77"/>
</g>
<!-- IncludesAllInputData -->
<g id="node7" class="node">
<title>IncludesAllInputData</title>
<path fill="#b3e2cd" stroke="black" d="M671,-198C671,-198 513,-198 513,-198 507,-198 501,-192 501,-186 501,-186 501,-174 501,-174 501,-168 507,-162 513,-162 513,-162 671,-162 671,-162 677,-162 683,-168 683,-174 683,-174 683,-186 683,-186 683,-192 677,-198 671,-198"/>
<text text-anchor="middle" x="592" y="-176.3" font-family="Courier,monospace" font-size="14.00">IncludesAllInputData</text>
</g>
<!-- TROAttribute&#45;&gt;IncludesAllInputData -->
<g id="edge5" class="edge">
<title>TROAttribute&#45;&gt;IncludesAllInputData</title>
<path fill="none" stroke="black" d="M407.8,-180C432.55,-180 462.25,-180 490.46,-180"/>
<polygon fill="black" stroke="black" points="490.78,-183.5 500.78,-180 490.78,-176.5 490.78,-183.5"/>
</g>
<!-- TRSCapability -->
<g id="node8" class="node">
<title>TRSCapability</title>
<path fill="#b3e2cd" stroke="black" d="M642,-144C642,-144 542,-144 542,-144 536,-144 530,-138 530,-132 530,-132 530,-120 530,-120 530,-114 536,-108 542,-108 542,-108 642,-108 642,-108 648,-108 654,-114 654,-120 654,-120 654,-132 654,-132 654,-138 648,-144 642,-144"/>
<text text-anchor="middle" x="592" y="-122.3" font-family="Courier,monospace" font-size="14.00">TRSCapability</text>
</g>
<!-- TRSAttribute&#45;&gt;TRSCapability -->
<g id="edge6" class="edge">
<title>TRSAttribute&#45;&gt;TRSCapability</title>
<path fill="none" stroke="black" d="M407.8,-126C441.31,-126 483.9,-126 519.59,-126"/>
<polygon fill="black" stroke="black" points="519.93,-129.5 529.93,-126 519.93,-122.5 519.93,-129.5"/>
</g>
<!-- CanProvideInternetIsolation -->
<g id="node9" class="node">
<title>CanProvideInternetIsolation</title>
<path fill="#b3e2cd" stroke="black" d="M946,-171C946,-171 731,-171 731,-171 725,-171 719,-165 719,-159 719,-159 719,-147 719,-147 719,-141 725,-135 731,-135 731,-135 946,-135 946,-135 952,-135 958,-141 958,-147 958,-147 958,-159 958,-159 958,-165 952,-171 946,-171"/>
<text text-anchor="middle" x="838.5" y="-149.3" font-family="Courier,monospace" font-size="14.00">CanProvideInternetIsolation</text>
</g>
<!-- TRSCapability&#45;&gt;CanProvideInternetIsolation -->
<g id="edge7" class="edge">
<title>TRSCapability&#45;&gt;CanProvideInternetIsolation</title>
<path fill="none" stroke="black" d="M654.07,-132.74C670.81,-134.59 689.61,-136.67 708.63,-138.77"/>
<polygon fill="black" stroke="black" points="708.27,-142.25 718.59,-139.87 709.03,-135.29 708.27,-142.25"/>
</g>
<!-- TRSPolicy -->
<g id="node10" class="node">
<title>TRSPolicy</title>
<path fill="#b3e2cd" stroke="black" d="M872,-117C872,-117 805,-117 805,-117 799,-117 793,-111 793,-105 793,-105 793,-93 793,-93 793,-87 799,-81 805,-81 805,-81 872,-81 872,-81 878,-81 884,-87 884,-93 884,-93 884,-105 884,-105 884,-111 878,-117 872,-117"/>
<text text-anchor="middle" x="838.5" y="-95.3" font-family="Courier,monospace" font-size="14.00">TRSPolicy</text>
</g>
<!-- TRSCapability&#45;&gt;TRSPolicy -->
<g id="edge8" class="edge">
<title>TRSCapability&#45;&gt;TRSPolicy</title>
<path fill="none" stroke="black" d="M654.07,-119.26C693.5,-114.9 744.38,-109.28 782.54,-105.07"/>
<polygon fill="black" stroke="black" points="783.39,-108.5 792.95,-103.92 782.63,-101.54 783.39,-108.5"/>
</g>
<!-- EnforcesInternetIsolation -->
<g id="node11" class="node">
<title>EnforcesInternetIsolation</title>
<path fill="#b3e2cd" stroke="black" d="M1205,-117C1205,-117 1006,-117 1006,-117 1000,-117 994,-111 994,-105 994,-105 994,-93 994,-93 994,-87 1000,-81 1006,-81 1006,-81 1205,-81 1205,-81 1211,-81 1217,-87 1217,-93 1217,-93 1217,-105 1217,-105 1217,-111 1211,-117 1205,-117"/>
<text text-anchor="middle" x="1105.5" y="-95.3" font-family="Courier,monospace" font-size="14.00">EnforcesInternetIsolation</text>
</g>
<!-- TRSPolicy&#45;&gt;EnforcesInternetIsolation -->
<g id="edge9" class="edge">
<title>TRSPolicy&#45;&gt;EnforcesInternetIsolation</title>
<path fill="none" stroke="black" d="M884.15,-99C911.54,-99 948.04,-99 983.45,-99"/>
<polygon fill="black" stroke="black" points="983.89,-102.5 993.89,-99 983.89,-95.5 983.89,-102.5"/>
</g>
<!-- TrustedResearchElement -->
<g id="node12" class="node">
<title>TrustedResearchElement</title>
<path fill="#b3e2cd" stroke="black" d="M186,-333C186,-333 12,-333 12,-333 6,-333 0,-327 0,-321 0,-321 0,-309 0,-309 0,-303 6,-297 12,-297 12,-297 186,-297 186,-297 192,-297 198,-303 198,-309 198,-309 198,-321 198,-321 198,-327 192,-333 186,-333"/>
<text text-anchor="middle" x="99" y="-311.3" font-family="Courier,monospace" font-size="14.00">TrustedResearchElement</text>
</g>
<!-- TimeStampingAuthority -->
<g id="node13" class="node">
<title>TimeStampingAuthority</title>
<path fill="#b3e2cd" stroke="black" d="M432.5,-414C432.5,-414 266.5,-414 266.5,-414 260.5,-414 254.5,-408 254.5,-402 254.5,-402 254.5,-390 254.5,-390 254.5,-384 260.5,-378 266.5,-378 266.5,-378 432.5,-378 432.5,-378 438.5,-378 444.5,-384 444.5,-390 444.5,-390 444.5,-402 444.5,-402 444.5,-408 438.5,-414 432.5,-414"/>
<text text-anchor="middle" x="349.5" y="-392.3" font-family="Courier,monospace" font-size="14.00">TimeStampingAuthority</text>
</g>
<!-- TrustedResearchElement&#45;&gt;TimeStampingAuthority -->
<g id="edge10" class="edge">
<title>TrustedResearchElement&#45;&gt;TimeStampingAuthority</title>
<path fill="none" stroke="black" d="M140.17,-333.05C166.49,-344.41 201.85,-358.79 234,-369 240.89,-371.19 248.07,-373.29 255.32,-375.28"/>
<polygon fill="black" stroke="black" points="254.66,-378.73 265.23,-377.93 256.47,-371.97 254.66,-378.73"/>
</g>
<!-- TransparentResearchObject -->
<g id="node14" class="node">
<title>TransparentResearchObject</title>
<path fill="#b3e2cd" stroke="black" d="M449,-360C449,-360 250,-360 250,-360 244,-360 238,-354 238,-348 238,-348 238,-336 238,-336 238,-330 244,-324 250,-324 250,-324 449,-324 449,-324 455,-324 461,-330 461,-336 461,-336 461,-348 461,-348 461,-354 455,-360 449,-360"/>
<text text-anchor="middle" x="349.5" y="-338.3" font-family="Courier,monospace" font-size="14.00">TransparentResearchObject</text>
</g>
<!-- TrustedResearchElement&#45;&gt;TransparentResearchObject -->
<g id="edge11" class="edge">
<title>TrustedResearchElement&#45;&gt;TransparentResearchObject</title>
<path fill="none" stroke="black" d="M198.21,-325.67C207.88,-326.72 217.77,-327.8 227.62,-328.87"/>
<polygon fill="black" stroke="black" points="227.56,-332.38 237.88,-329.98 228.31,-325.42 227.56,-332.38"/>
</g>
<!-- TrustedResearchPerformance -->
<g id="node15" class="node">
<title>TrustedResearchPerformance</title>
<path fill="#b3e2cd" stroke="black" d="M453,-306C453,-306 246,-306 246,-306 240,-306 234,-300 234,-294 234,-294 234,-282 234,-282 234,-276 240,-270 246,-270 246,-270 453,-270 453,-270 459,-270 465,-276 465,-282 465,-282 465,-294 465,-294 465,-300 459,-306 453,-306"/>
<text text-anchor="middle" x="349.5" y="-284.3" font-family="Courier,monospace" font-size="14.00">TrustedResearchPerformance</text>
</g>
<!-- TrustedResearchElement&#45;&gt;TrustedResearchPerformance -->
<g id="edge12" class="edge">
<title>TrustedResearchElement&#45;&gt;TrustedResearchPerformance</title>
<path fill="none" stroke="black" d="M198.21,-304.33C206.6,-303.42 215.15,-302.49 223.71,-301.56"/>
<polygon fill="black" stroke="black" points="224.18,-305.03 233.74,-300.47 223.42,-298.07 224.18,-305.03"/>
</g>
<!-- TrustedResearchSystem -->
<g id="node16" class="node">
<title>TrustedResearchSystem</title>
<path fill="#b3e2cd" stroke="black" d="M432.5,-252C432.5,-252 266.5,-252 266.5,-252 260.5,-252 254.5,-246 254.5,-240 254.5,-240 254.5,-228 254.5,-228 254.5,-222 260.5,-216 266.5,-216 266.5,-216 432.5,-216 432.5,-216 438.5,-216 444.5,-222 444.5,-228 444.5,-228 444.5,-240 444.5,-240 444.5,-246 438.5,-252 432.5,-252"/>
<text text-anchor="middle" x="349.5" y="-230.3" font-family="Courier,monospace" font-size="14.00">TrustedResearchSystem</text>
</g>
<!-- TrustedResearchElement&#45;&gt;TrustedResearchSystem -->
<g id="edge13" class="edge">
<title>TrustedResearchElement&#45;&gt;TrustedResearchSystem</title>
<path fill="none" stroke="black" d="M140.17,-296.95C166.49,-285.59 201.85,-271.21 234,-261 240.89,-258.81 248.07,-256.71 255.32,-254.72"/>
<polygon fill="black" stroke="black" points="256.47,-258.03 265.23,-252.07 254.66,-251.27 256.47,-258.03"/>
</g>
</g>
</svg>
