<?xml version="1.0" encoding="UTF-8" standalone="no"?>
<!DOCTYPE svg PUBLIC "-//W3C//DTD SVG 1.1//EN"
 "http://www.w3.org/Graphics/SVG/1.1/DTD/svg11.dtd">
<!-- Generated by graphviz version 2.43.0 (0)
 -->
<!-- Title: subclass_vocab_graph Pages: 1 -->
<svg width="306pt" height="185pt"
 viewBox="0.00 0.00 306.00 185.00" xmlns="http://www.w3.org/2000/svg" xmlns:xlink="http://www.w3.org/1999/xlink">
<g id="graph0" class="graph" transform="scale(1 1) rotate(0) translate(4 181)">
<title>subclass_vocab_graph</title>
<polygon fill="white" stroke="transparent" points="-4,4 -4,-181 302,-181 302,4 -4,4"/>
<text text-anchor="middle" x="149" y="-163.4" font-family="Courier,monospace" font-size="12.00">Subclass Vocab Graph</text>
<g id="clust1" class="cluster">
<title>cluster_subclass</title>
<polygon fill="none" stroke="white" stroke-width="0" points="8,-8 8,-148 290,-148 290,-8 8,-8"/>
</g>
<g id="clust2" class="cluster">
<title>cluster_subclass_inner</title>
<polygon fill="none" stroke="white" stroke-width="0" points="16,-16 16,-140 282,-140 282,-16 16,-16"/>
</g>
<!-- ObjectPolicy -->
<g id="node1" class="node">
<title>ObjectPolicy</title>
<polygon fill="#ccffcc" stroke="black" points="274,-60 158,-60 158,-24 274,-24 274,-60"/>
<text text-anchor="middle" x="216" y="-38.3" font-family="Courier,monospace" font-size="14.00">ObjectPolicy</text>
</g>
<!-- Policy -->
<g id="node2" class="node">
<title>Policy</title>
<polygon fill="#ccffcc" stroke="black" points="182,-132 116,-132 116,-96 182,-96 182,-132"/>
<text text-anchor="middle" x="149" y="-110.3" font-family="Courier,monospace" font-size="14.00">Policy</text>
</g>
<!-- ObjectPolicy&#45;&gt;Policy -->
<g id="edge1" class="edge">
<title>ObjectPolicy&#45;&gt;Policy</title>
<path fill="none" stroke="black" d="M199.44,-60.3C191.32,-68.78 181.41,-79.14 172.53,-88.42"/>
<polygon fill="black" stroke="black" points="169.76,-86.25 165.37,-95.9 174.81,-91.09 169.76,-86.25"/>
</g>
<!-- SystemPolicy -->
<g id="node3" class="node">
<title>SystemPolicy</title>
<polygon fill="#ccffcc" stroke="black" points="140,-60 24,-60 24,-24 140,-24 140,-60"/>
<text text-anchor="middle" x="82" y="-38.3" font-family="Courier,monospace" font-size="14.00">SystemPolicy</text>
</g>
<!-- SystemPolicy&#45;&gt;Policy -->
<g id="edge2" class="edge">
<title>SystemPolicy&#45;&gt;Policy</title>
<path fill="none" stroke="black" d="M98.56,-60.3C106.68,-68.78 116.59,-79.14 125.47,-88.42"/>
<polygon fill="black" stroke="black" points="123.19,-91.09 132.63,-95.9 128.24,-86.25 123.19,-91.09"/>
</g>
</g>
</svg>
