<?xml version="1.0" encoding="UTF-8" standalone="no"?>
<!DOCTYPE svg PUBLIC "-//W3C//DTD SVG 1.1//EN"
 "http://www.w3.org/Graphics/SVG/1.1/DTD/svg11.dtd">
<!-- Generated by graphviz version 2.43.0 (0)
 -->
<!-- Title: arrangement Pages: 1 -->
<svg width="383pt" height="439pt"
 viewBox="0.00 0.00 383.00 439.00" xmlns="http://www.w3.org/2000/svg" xmlns:xlink="http://www.w3.org/1999/xlink">
<g id="graph0" class="graph" transform="scale(1 1) rotate(0) translate(4 435)">
<title>arrangement</title>
<polygon fill="white" stroke="transparent" points="-4,4 -4,-435 379,-435 379,4 -4,4"/>
<!-- arrangement/1 -->
<g id="node1" class="node">
<title>arrangement/1</title>
<path fill="#b3e2cd" stroke="black" d="M112,-352C112,-352 12,-352 12,-352 6,-352 0,-346 0,-340 0,-340 0,-328 0,-328 0,-322 6,-316 12,-316 12,-316 112,-316 112,-316 118,-316 124,-322 124,-328 124,-328 124,-340 124,-340 124,-346 118,-352 112,-352"/>
<text text-anchor="middle" x="62" y="-330.3" font-family="Courier,monospace" font-size="14.00">arrangement/1</text>
</g>
<!-- composition/1/artifact/1 -->
<g id="node2" class="node">
<title>composition/1/artifact/1</title>
<path fill="#b3e2cd" stroke="black" d="M363,-352C363,-352 172,-352 172,-352 166,-352 160,-346 160,-340 160,-340 160,-328 160,-328 160,-322 166,-316 172,-316 172,-316 363,-316 363,-316 369,-316 375,-322 375,-328 375,-328 375,-340 375,-340 375,-346 369,-352 363,-352"/>
<text text-anchor="middle" x="267.5" y="-330.3" font-family="Courier,monospace" font-size="14.00">composition/1/artifact/1</text>
</g>
<!-- arrangement/1&#45;&gt;composition/1/artifact/1 -->
<g id="edge1" class="edge">
<title>arrangement/1&#45;&gt;composition/1/artifact/1</title>
<path fill="none" stroke="black" d="M124.06,-334C132.31,-334 140.99,-334 149.82,-334"/>
<polygon fill="black" stroke="black" points="149.84,-337.5 159.84,-334 149.84,-330.5 149.84,-337.5"/>
</g>
<!-- arrangement/2 -->
<g id="node3" class="node">
<title>arrangement/2</title>
<path fill="#b3e2cd" stroke="black" d="M112,-431C112,-431 12,-431 12,-431 6,-431 0,-425 0,-419 0,-419 0,-407 0,-407 0,-401 6,-395 12,-395 12,-395 112,-395 112,-395 118,-395 124,-401 124,-407 124,-407 124,-419 124,-419 124,-425 118,-431 112,-431"/>
<text text-anchor="middle" x="62" y="-409.3" font-family="Courier,monospace" font-size="14.00">arrangement/2</text>
</g>
<!-- arrangement/2&#45;&gt;composition/1/artifact/1 -->
<g id="edge2" class="edge">
<title>arrangement/2&#45;&gt;composition/1/artifact/1</title>
<path fill="none" stroke="black" d="M107.34,-394.92C123.84,-388.26 142.74,-380.71 160,-374 175.55,-367.95 192.43,-361.54 208.08,-355.67"/>
<polygon fill="black" stroke="black" points="209.5,-358.87 217.63,-352.09 207.04,-352.32 209.5,-358.87"/>
</g>
<!-- composition/1/artifact/2 -->
<g id="node4" class="node">
<title>composition/1/artifact/2</title>
<path fill="#b3e2cd" stroke="black" d="M363,-431C363,-431 172,-431 172,-431 166,-431 160,-425 160,-419 160,-419 160,-407 160,-407 160,-401 166,-395 172,-395 172,-395 363,-395 363,-395 369,-395 375,-401 375,-407 375,-407 375,-419 375,-419 375,-425 369,-431 363,-431"/>
<text text-anchor="middle" x="267.5" y="-409.3" font-family="Courier,monospace" font-size="14.00">composition/1/artifact/2</text>
</g>
<!-- arrangement/2&#45;&gt;composition/1/artifact/2 -->
<g id="edge3" class="edge">
<title>arrangement/2&#45;&gt;composition/1/artifact/2</title>
<path fill="none" stroke="black" d="M124.06,-413C132.31,-413 140.99,-413 149.82,-413"/>
<polygon fill="black" stroke="black" points="149.84,-416.5 159.84,-413 149.84,-409.5 149.84,-416.5"/>
</g>
<!-- arrangement/3 -->
<g id="node5" class="node">
<title>arrangement/3</title>
<path fill="#b3e2cd" stroke="black" d="M112,-194C112,-194 12,-194 12,-194 6,-194 0,-188 0,-182 0,-182 0,-170 0,-170 0,-164 6,-158 12,-158 12,-158 112,-158 112,-158 118,-158 124,-164 124,-170 124,-170 124,-182 124,-182 124,-188 118,-194 112,-194"/>
<text text-anchor="middle" x="62" y="-172.3" font-family="Courier,monospace" font-size="14.00">arrangement/3</text>
</g>
<!-- arrangement/3&#45;&gt;composition/1/artifact/1 -->
<g id="edge4" class="edge">
<title>arrangement/3&#45;&gt;composition/1/artifact/1</title>
<path fill="none" stroke="black" d="M73.5,-194.31C89.2,-220.17 121.14,-267.32 160,-295 169.3,-301.63 179.86,-307.25 190.62,-311.99"/>
<polygon fill="black" stroke="black" points="189.53,-315.33 200.11,-315.93 192.21,-308.86 189.53,-315.33"/>
</g>
<!-- composition/1/artifact/3 -->
<g id="node6" class="node">
<title>composition/1/artifact/3</title>
<path fill="#b3e2cd" stroke="black" d="M363,-273C363,-273 172,-273 172,-273 166,-273 160,-267 160,-261 160,-261 160,-249 160,-249 160,-243 166,-237 172,-237 172,-237 363,-237 363,-237 369,-237 375,-243 375,-249 375,-249 375,-261 375,-261 375,-267 369,-273 363,-273"/>
<text text-anchor="middle" x="267.5" y="-251.3" font-family="Courier,monospace" font-size="14.00">composition/1/artifact/3</text>
</g>
<!-- arrangement/3&#45;&gt;composition/1/artifact/3 -->
<g id="edge5" class="edge">
<title>arrangement/3&#45;&gt;composition/1/artifact/3</title>
<path fill="none" stroke="black" d="M105.83,-194.09C122.65,-201.09 142.18,-209.06 160,-216 174.9,-221.8 191.07,-227.84 206.19,-233.39"/>
<polygon fill="black" stroke="black" points="205.37,-236.82 215.96,-236.96 207.77,-230.24 205.37,-236.82"/>
</g>
<!-- composition/1/artifact/4 -->
<g id="node7" class="node">
<title>composition/1/artifact/4</title>
<path fill="#b3e2cd" stroke="black" d="M363,-194C363,-194 172,-194 172,-194 166,-194 160,-188 160,-182 160,-182 160,-170 160,-170 160,-164 166,-158 172,-158 172,-158 363,-158 363,-158 369,-158 375,-164 375,-170 375,-170 375,-182 375,-182 375,-188 369,-194 363,-194"/>
<text text-anchor="middle" x="267.5" y="-172.3" font-family="Courier,monospace" font-size="14.00">composition/1/artifact/4</text>
</g>
<!-- arrangement/3&#45;&gt;composition/1/artifact/4 -->
<g id="edge6" class="edge">
<title>arrangement/3&#45;&gt;composition/1/artifact/4</title>
<path fill="none" stroke="black" d="M124.06,-176C132.31,-176 140.99,-176 149.82,-176"/>
<polygon fill="black" stroke="black" points="149.84,-179.5 159.84,-176 149.84,-172.5 149.84,-179.5"/>
</g>
<!-- composition/1/artifact/5 -->
<g id="node8" class="node">
<title>composition/1/artifact/5</title>
<path fill="#b3e2cd" stroke="black" d="M363,-115C363,-115 172,-115 172,-115 166,-115 160,-109 160,-103 160,-103 160,-91 160,-91 160,-85 166,-79 172,-79 172,-79 363,-79 363,-79 369,-79 375,-85 375,-91 375,-91 375,-103 375,-103 375,-109 369,-115 363,-115"/>
<text text-anchor="middle" x="267.5" y="-93.3" font-family="Courier,monospace" font-size="14.00">composition/1/artifact/5</text>
</g>
<!-- arrangement/3&#45;&gt;composition/1/artifact/5 -->
<g id="edge7" class="edge">
<title>arrangement/3&#45;&gt;composition/1/artifact/5</title>
<path fill="none" stroke="black" d="M107.34,-157.92C123.84,-151.26 142.74,-143.71 160,-137 175.55,-130.95 192.43,-124.54 208.08,-118.67"/>
<polygon fill="black" stroke="black" points="209.5,-121.87 217.63,-115.09 207.04,-115.32 209.5,-121.87"/>
</g>
<!-- composition/1/artifact/6 -->
<g id="node9" class="node">
<title>composition/1/artifact/6</title>
<path fill="#b3e2cd" stroke="black" d="M363,-36C363,-36 172,-36 172,-36 166,-36 160,-30 160,-24 160,-24 160,-12 160,-12 160,-6 166,0 172,0 172,0 363,0 363,0 369,0 375,-6 375,-12 375,-12 375,-24 375,-24 375,-30 369,-36 363,-36"/>
<text text-anchor="middle" x="267.5" y="-14.3" font-family="Courier,monospace" font-size="14.00">composition/1/artifact/6</text>
</g>
<!-- arrangement/3&#45;&gt;composition/1/artifact/6 -->
<g id="edge8" class="edge">
<title>arrangement/3&#45;&gt;composition/1/artifact/6</title>
<path fill="none" stroke="black" d="M98.92,-157.84C107.92,-152.08 117,-145.07 124,-137 149.29,-107.86 131.8,-84.34 160,-58 167.49,-51 176.33,-45.2 185.65,-40.39"/>
<polygon fill="black" stroke="black" points="187.18,-43.54 194.71,-36.08 184.17,-37.22 187.18,-43.54"/>
</g>
<!-- arrangement/4 -->
<g id="node10" class="node">
<title>arrangement/4</title>
<path fill="#b3e2cd" stroke="black" d="M112,-115C112,-115 12,-115 12,-115 6,-115 0,-109 0,-103 0,-103 0,-91 0,-91 0,-85 6,-79 12,-79 12,-79 112,-79 112,-79 118,-79 124,-85 124,-91 124,-91 124,-103 124,-103 124,-109 118,-115 112,-115"/>
<text text-anchor="middle" x="62" y="-93.3" font-family="Courier,monospace" font-size="14.00">arrangement/4</text>
</g>
<!-- arrangement/4&#45;&gt;composition/1/artifact/3 -->
<g id="edge9" class="edge">
<title>arrangement/4&#45;&gt;composition/1/artifact/3</title>
<path fill="none" stroke="black" d="M97.96,-115.14C107.27,-121.17 116.74,-128.54 124,-137 149.12,-166.29 131.69,-189.78 160,-216 167.02,-222.5 175.22,-227.95 183.89,-232.49"/>
<polygon fill="black" stroke="black" points="182.54,-235.73 193.07,-236.91 185.58,-229.42 182.54,-235.73"/>
</g>
<!-- arrangement/4&#45;&gt;composition/1/artifact/4 -->
<g id="edge10" class="edge">
<title>arrangement/4&#45;&gt;composition/1/artifact/4</title>
<path fill="none" stroke="black" d="M105.83,-115.09C122.65,-122.09 142.18,-130.06 160,-137 174.9,-142.8 191.07,-148.84 206.19,-154.39"/>
<polygon fill="black" stroke="black" points="205.37,-157.82 215.96,-157.96 207.77,-151.24 205.37,-157.82"/>
</g>
<!-- arrangement/4&#45;&gt;composition/1/artifact/5 -->
<g id="edge11" class="edge">
<title>arrangement/4&#45;&gt;composition/1/artifact/5</title>
<path fill="none" stroke="black" d="M124.06,-97C132.31,-97 140.99,-97 149.82,-97"/>
<polygon fill="black" stroke="black" points="149.84,-100.5 159.84,-97 149.84,-93.5 149.84,-100.5"/>
</g>
<!-- arrangement/4&#45;&gt;composition/1/artifact/6 -->
<g id="edge12" class="edge">
<title>arrangement/4&#45;&gt;composition/1/artifact/6</title>
<path fill="none" stroke="black" d="M107.34,-78.92C123.84,-72.26 142.74,-64.71 160,-58 175.55,-51.95 192.43,-45.54 208.08,-39.67"/>
<polygon fill="black" stroke="black" points="209.5,-42.87 217.63,-36.09 207.04,-36.32 209.5,-42.87"/>
</g>
</g>
</svg>
